PathFileType	4	(X/Y/Z)	D:\TRACE\spotREDO_2-26-24\spot_justBody_Motion_1_4-platform.trc
DataRate	CameraRate	NumFrames	NumMarkers	Units	OrigDataRate	OrigDataStartFrame	OrigNumFrames
100.00	100.00	      57	5	mm	100.00	1	      7000
Frame#	Time	Left_Front			Right_Front			Left_Aft			Right_Aft			Post			
		X1	Y1	Z1	X2	Y2	Z2	X3	Y3	Z3	X4	Y4	Z4	X5	Y5	Z5	

1	0.000	-696.84644	-3.77705	-575.55536	717.96130	5.20704	-491.23544	-768.05072	4.67410	643.46729	802.34833	11.94662	646.32526	12.79473	623.48578	-981.83112	
2	0.010	-696.82709	-3.75969	-575.56311	718.07208	5.18140	-491.18967	-767.98822	4.67819	643.48914	802.46649	11.90262	646.33246	12.83683	623.41473	-981.86560	
3	0.020	-696.81342	-3.75787	-575.54565	718.06317	5.21738	-491.20383	-768.06915	4.73932	643.50128	802.43555	11.93695	646.32727	12.83576	623.40143	-981.93774	
4	0.030	-696.83154	-3.77583	-575.53314	718.12708	5.27461	-491.11160	-768.05737	4.74700	643.46259	802.49353	11.84577	646.40649	12.87810	623.37756	-982.09198	
5	0.040	-696.86377	-3.77257	-575.56683	718.10492	5.23607	-491.15735	-768.03601	4.73333	643.49622	802.33673	12.15808	646.61816	12.83674	623.35498	-982.25543	
6	0.050	-696.84430	-3.76622	-575.53290	718.07709	5.17073	-491.24252	-768.07672	4.76522	643.41211	802.32214	12.13893	646.62781	12.81202	623.38885	-982.34180	
7	0.060	-696.83783	-3.78513	-575.54645	718.02234	5.17248	-491.21207	-768.08276	4.73437	643.29480	802.45441	11.84258	646.33752	12.84392	623.40778	-982.39801	
8	0.070	-696.82245	-3.75722	-575.52808	718.04523	5.21002	-491.20547	-768.11322	4.80351	643.37543	802.45648	11.84731	646.39380	12.81873	623.39606	-982.38770	
9	0.080	-696.84509	-3.73116	-575.53497	718.08502	5.24001	-491.15530	-768.10754	4.82107	643.41565	802.44489	11.78811	646.36115	12.79819	623.43097	-982.33496	
10	0.090	-696.79230	-3.78705	-575.52197	718.11694	5.26638	-491.10822	-768.12469	4.87587	643.43243	802.32996	12.11847	646.63293	12.76985	623.43982	-982.18652	
11	0.100	-696.83252	-3.79274	-575.53979	718.11743	5.20686	-491.15668	-768.07635	4.75988	643.42560	802.49561	11.83589	646.37555	12.78670	623.41864	-982.04449	
12	0.110	-696.84070	-3.78672	-575.52887	718.03076	5.17851	-491.21375	-768.05518	4.70106	643.41028	802.46259	11.87582	646.39093	12.81282	623.44690	-981.86316	
13	0.120	-696.84076	-3.77893	-575.54993	718.03503	5.17668	-491.20175	-768.04584	4.74196	643.40601	802.45740	11.84008	646.32855	12.79889	623.40552	-981.80280	
14	0.130	-696.84344	-3.77439	-575.53326	718.00891	5.16927	-491.22491	-768.10657	4.77765	643.41315	802.41876	11.79669	646.39575	12.76884	623.42017	-981.80530	
15	0.140	-696.80981	-3.77633	-575.54218	718.08087	5.22542	-491.15842	-768.11359	4.83676	643.41681	802.41260	11.80181	646.43158	12.79046	623.41553	-981.85986	
16	0.150	-696.82715	-3.77628	-575.52881	718.08051	5.25064	-491.18188	-768.16321	4.83093	643.38751	802.39319	11.77125	646.44000	12.76790	623.44196	-981.97906	
17	0.160	-696.83960	-3.77067	-575.54584	718.06982	5.21500	-491.21048	-768.10034	4.76655	643.36938	802.47253	11.81174	646.38068	12.79814	623.43762	-982.10101	
18	0.170	-696.81866	-3.80381	-575.50922	718.04022	5.19166	-491.22043	-768.07916	4.71733	643.44287	802.52246	11.82644	646.40552	12.85285	623.43774	-982.19977	
19	0.180	-696.83337	-3.76263	-575.55560	718.08051	5.18971	-491.17255	-768.05847	4.73670	643.40540	802.50916	11.86211	646.39484	12.86851	623.41248	-982.34369	
20	0.190	-696.84406	-3.78486	-575.51984	718.06726	5.23808	-491.15744	-768.13391	4.75377	643.44354	802.50928	11.81379	646.38446	12.83840	623.39874	-982.38538	
21	0.200	-696.82648	-3.78036	-575.54413	718.08344	5.22425	-491.10013	-768.12408	4.81571	643.39685	802.55341	11.78661	646.38715	12.81767	623.39648	-982.36914	
22	0.210	-696.58398	-4.07470	-575.58331	718.04474	5.18522	-491.20569	-768.15399	4.81828	643.39746	802.36383	11.74892	646.41980	12.81279	623.34436	-982.26672	
23	0.220	-696.74860	-3.88183	-575.58105	718.04102	5.14473	-491.19177	-768.16748	4.78430	643.35101	802.46094	11.89154	646.35400	12.87186	623.34894	-982.16077	
24	0.230	-696.70172	-3.88876	-575.60907	718.04926	5.14726	-491.19427	-768.12360	4.74422	643.38025	802.49683	11.89883	646.36133	12.86222	623.39899	-982.09576	
25	0.240	-696.65808	-3.93878	-575.58850	718.04016	5.19580	-491.23639	-768.12671	4.75488	643.36792	802.50049	11.84866	646.37488	12.80396	623.44781	-982.00745	
26	0.250	-696.66327	-3.90273	-575.59442	718.11853	5.21350	-491.19418	-768.12531	4.73720	643.38074	802.54645	11.79949	646.30414	12.80248	623.42041	-982.02405	
27	0.260	-696.68701	-3.88865	-575.60199	718.07239	5.20589	-491.16687	-768.10297	4.74168	643.40692	802.49646	11.76909	646.36469	12.74640	623.45288	-981.95758	
28	0.270	-696.66998	-3.87560	-575.61530	718.08545	5.17912	-491.13754	-768.17792	4.77826	643.41925	802.55566	11.75482	646.41278	12.77241	623.44617	-981.95422	
29	0.280	-696.69818	-3.86755	-575.63495	718.03595	5.15837	-491.21658	-768.14172	4.75918	643.44751	802.48059	11.80680	646.36743	12.84916	623.43286	-981.97302	
30	0.290	-696.66730	-3.86321	-575.60919	718.02301	5.20747	-491.18738	-768.12738	4.78187	643.42230	802.36853	11.81099	646.39209	12.75930	623.44287	-982.00848	
31	0.300	-696.68695	-3.86318	-575.61475	718.02661	5.22141	-491.15115	-768.16364	4.79776	643.34338	802.39331	11.81833	646.35297	12.80811	623.39905	-982.08282	
32	0.310	-696.71747	-3.85697	-575.62750	718.07953	5.18895	-491.17877	-768.05389	4.98424	643.51819	802.42706	11.83160	646.37433	12.83138	623.39783	-982.14282	
33	0.320	-696.71552	-3.88978	-575.64075	718.06720	5.17476	-491.17725	-768.13855	4.79858	643.42517	802.47784	11.86619	646.28796	12.82118	623.37427	-982.19928	
34	0.330	-696.72137	-3.84347	-575.64093	718.04370	5.22369	-491.15561	-768.09039	4.76788	643.40924	802.50085	11.86482	646.39557	12.84259	623.39191	-982.23682	
35	0.340	-696.67957	-3.90245	-575.60303	718.09863	5.20567	-491.19522	-768.07507	4.74283	643.42584	802.48828	11.85389	646.37177	12.88227	623.35468	-982.26721	
36	0.350	-696.67810	-3.88444	-575.62030	718.01471	5.20639	-491.16821	-768.13306	4.82176	643.42474	802.40137	11.91758	646.34521	12.83119	623.37860	-982.29572	
37	0.360	-696.62830	-3.89440	-575.60919	718.05597	5.24062	-491.17966	-768.13147	4.83426	643.45911	802.37665	11.87003	646.35388	12.79751	623.39612	-982.20392	
38	0.370	-696.71967	-3.83529	-575.60712	718.05511	5.25142	-491.16705	-768.15253	4.84051	643.42474	802.37836	11.87925	646.34595	12.82122	623.43396	-982.13483	
39	0.380	-696.68671	-3.86730	-575.64014	718.10870	5.25984	-491.13916	-768.11774	4.82197	643.41199	802.41571	11.93535	646.34888	12.83672	623.43756	-982.07568	
40	0.390	-696.69983	-3.86692	-575.61304	718.05981	5.21433	-491.16739	-768.07599	4.74953	643.39185	802.42218	11.89826	646.36700	12.79923	623.45099	-981.93866	
41	0.400	-696.66882	-3.91586	-575.59705	718.05798	5.16373	-491.24545	-768.07965	4.75597	643.42908	802.40472	12.18453	646.58698	12.78889	623.44623	-981.88336	
42	0.410	-696.67029	-3.91753	-575.62579	718.02344	5.22943	-491.13968	-768.10431	4.78254	643.41779	802.49615	11.86337	646.36725	12.77297	623.44360	-981.87378	
43	0.420	-696.65088	-3.92566	-575.61841	718.08514	5.22730	-491.18707	-768.08453	4.83608	643.44940	802.43976	11.83953	646.40735	12.77074	623.41595	-981.90796	
44	0.430	-696.66003	-3.91527	-575.61841	718.07318	5.25766	-491.17651	-768.05890	4.78306	643.41107	802.45831	11.85818	646.38428	12.80470	623.39661	-981.97278	
45	0.440	-696.63324	-3.91838	-575.60077	718.05212	5.20165	-491.20230	-768.09882	4.83141	643.44098	802.34631	11.86068	646.36401	12.77182	623.40814	-982.07880	
46	0.450	-696.67230	-3.96076	-575.58917	718.04907	5.20138	-491.18362	-768.10284	4.79108	643.44043	802.42871	11.84045	646.36163	12.83318	623.42029	-982.12872	
47	0.460	-696.69678	-3.89583	-575.58893	718.06647	5.23483	-491.19775	-768.06848	4.75282	643.39532	802.30902	12.11899	646.65533	12.81695	623.41412	-982.22186	
48	0.470	-696.69440	-3.89334	-575.59302	718.08698	5.24856	-491.16211	-768.10046	4.80436	643.42975	802.48566	11.85262	646.34808	12.77003	623.42383	-982.27783	
49	0.480	-696.69482	-3.87331	-575.62030	718.09259	5.23713	-491.15082	-768.05475	4.78833	643.45245	802.51099	11.85934	646.39856	12.85807	623.42676	-982.25476	
50	0.490	-696.67737	-3.91875	-575.57214	718.05994	5.20601	-491.13855	-768.03827	4.78398	643.46307	802.48303	11.84809	646.43542	12.82351	623.40973	-982.21094	
51	0.500	-696.67163	-3.93333	-575.58917	718.10168	5.18818	-491.17078	-768.12170	4.80029	643.45288	802.49310	11.85946	646.38312	12.83047	623.40436	-982.12952	
52	0.510	-696.67261	-3.97670	-575.60962	718.01398	5.16053	-491.22989	-768.08667	4.80646	643.38055	802.37628	11.84252	646.38751	12.83766	623.39594	-982.05927	
53	0.520	-696.67218	-3.95878	-575.59558	718.02740	5.25580	-491.19098	-768.10626	4.83018	643.38947	802.33551	11.87463	646.36316	12.75251	623.45276	-981.99335	
54	0.530	-696.66650	-3.91618	-575.61200	718.03339	5.24263	-491.15976	-768.10376	4.83565	643.39813	802.44507	11.87449	646.34680	12.77654	623.44482	-981.91180	
55	0.540	-696.69348	-3.88769	-575.60126	718.09442	5.23816	-491.17725	-768.08807	4.83176	643.45459	802.43005	11.93326	646.35950	12.76222	623.47681	-981.92291	
56	0.550	-696.67731	-3.85427	-575.60175	718.08484	5.20685	-491.14627	-768.03302	4.77653	643.42480	802.49274	11.89147	646.34827	12.79145	623.46448	-981.98602	
57	0.560	-696.69598	-3.89099	-575.59149	718.03223	5.17405	-491.22025	-768.02655	4.73733	643.39453	802.49615	11.86864	646.38800	12.76262	623.45868	-981.99298	
